<svg width="328" height="80" viewBox="0 0 328 80" fill="none" xmlns="http://www.w3.org/2000/svg">
<mask id="mask0_1_111" style="mask-type:alpha" maskUnits="userSpaceOnUse" x="0" y="0" width="328" height="80">
<path d="M328 72C328 76.4183 324.418 80 320 80L8 80C3.58173 80 0 76.4183 0 72V8C0 3.58173 3.58173 0 8 0L320 0C324.418 0 328 3.58172 328 8V72Z" fill="#5E81F4"/>
</mask>
<g mask="url(#mask0_1_111)">
<path fill-rule="evenodd" clip-rule="evenodd" d="M108.013 -244.474L185.145 -137.518L188.649 -140.246L111.517 -247.202L108.013 -244.474ZM93.7666 -214.908L170.899 -107.951L174.403 -110.679L97.2711 -217.636L93.7666 -214.908ZM102.074 -187.265L179.206 -80.3082L182.711 -83.0363L105.579 -189.993L102.074 -187.265ZM94.627 -181.467L171.759 -74.5109L175.264 -77.239L98.1315 -184.195L94.627 -181.467ZM152.655 46.9564L75.5225 -59.9999L79.027 -62.728L156.159 44.2284L152.655 46.9564ZM175.041 -69.9588L252.173 36.9975L255.678 34.2694L178.546 -72.6869L175.041 -69.9588ZM155.936 51.5085L233.068 158.465L236.572 155.737L159.44 48.7804L155.936 51.5085ZM313.483 269.972L236.351 163.016L239.855 160.288L316.987 267.244L313.483 269.972ZM255.455 41.5486L332.587 148.505L336.092 145.777L258.96 38.8205L255.455 41.5486ZM240.516 152.668L163.384 45.7112L166.888 42.9832L244.02 149.94L240.516 152.668ZM182.488 -75.7571L259.62 31.1992L263.125 28.4711L185.993 -78.4852L182.488 -75.7571ZM320.93 264.175L243.798 157.219L247.302 154.491L324.434 261.447L320.93 264.175ZM262.902 35.7513L340.034 142.708L343.539 139.98L266.407 33.0232L262.902 35.7513ZM160.101 41.1592L82.9688 -65.7972L86.4733 -68.5252L163.605 38.4311L160.101 41.1592ZM232.208 125.024L155.076 18.068L158.581 15.3399L235.713 122.296L232.208 125.024ZM174.181 -103.4L251.313 3.55599L254.817 0.827911L177.685 -106.128L174.181 -103.4ZM312.622 236.532L235.49 129.575L238.995 126.847L316.127 233.804L312.622 236.532ZM254.596 8.10707L331.728 115.063L335.232 112.335L258.1 5.379L254.596 8.10707ZM151.793 13.5159L74.6611 -93.4404L78.1657 -96.1685L155.298 10.7879L151.793 13.5159ZM246.453 95.458L169.321 -11.4983L172.826 -14.2264L249.958 92.73L246.453 95.458ZM188.426 -132.966L265.558 -26.0093L269.062 -28.7374L191.93 -135.694L188.426 -132.966ZM326.867 206.965L249.735 100.009L253.24 97.281L330.372 204.237L326.867 206.965ZM268.841 -21.4582L345.973 85.4981L349.477 82.77L272.345 -24.1863L268.841 -21.4582ZM166.039 -16.0494L88.9072 -123.006L92.4118 -125.734L169.544 -18.7774L166.039 -16.0494ZM278.189 123.34L201.057 16.3833L204.561 13.6552L281.693 120.612L278.189 123.34ZM220.162 -105.084L297.294 1.87231L300.799 -0.855764L223.667 -107.812L220.162 -105.084ZM358.603 234.847L281.471 127.891L284.975 125.163L362.107 232.119L358.603 234.847ZM300.576 6.42437L377.708 113.381L381.213 110.653L304.081 3.6963L300.576 6.42437ZM197.775 11.8333L120.643 -95.1231L124.147 -97.8512L201.279 9.10518L197.775 11.8333ZM139.748 -216.591L216.88 -109.635L220.385 -112.363L143.253 -219.32L139.748 -216.591ZM261.348 83.8635L184.216 -23.0929L187.72 -25.8209L264.852 81.1354L261.348 83.8635ZM203.32 -144.56L280.452 -37.6039L283.957 -40.3319L206.825 -147.288L203.32 -144.56ZM341.762 195.371L264.63 88.4146L268.134 85.6865L345.266 192.643L341.762 195.371ZM283.735 -33.0528L360.867 73.9036L364.372 71.1755L287.24 -35.7809L283.735 -33.0528ZM180.933 -27.6439L103.801 -134.6L107.305 -137.328L184.437 -30.372L180.933 -27.6439ZM122.906 -256.068L200.038 -149.111L203.543 -151.839L126.411 -258.796L122.906 -256.068ZM293.522 111.405L216.39 4.44821L219.894 1.72013L297.026 108.676L293.522 111.405ZM235.494 -117.018L312.626 -10.0618L316.131 -12.7899L238.999 -119.746L235.494 -117.018ZM373.936 222.913L296.804 115.957L300.308 113.229L377.44 220.185L373.936 222.913ZM315.908 -5.51071L393.04 101.446L396.545 98.7176L319.413 -8.23878L315.908 -5.51071ZM213.107 -0.102854L135.975 -107.059L139.479 -109.787L216.611 -2.83093L213.107 -0.102854ZM155.08 -228.527L232.212 -121.57L235.717 -124.298L158.585 -231.255L155.08 -228.527ZM263.295 134.935L186.163 27.9789L189.668 25.2508L266.8 132.207L263.295 134.935ZM205.268 -93.4885L282.4 13.4679L285.904 10.7398L208.772 -96.2166L205.268 -93.4885ZM343.709 246.443L266.577 139.486L270.082 136.758L347.214 243.715L343.709 246.443ZM285.682 18.0179L362.814 124.974L366.318 122.246L289.186 15.2899L285.682 18.0179ZM182.881 23.4268L105.749 -83.5295L109.254 -86.2576L186.386 20.6987L182.881 23.4268ZM124.854 -204.996L201.986 -98.0395L205.49 -100.768L128.358 -207.724L124.854 -204.996ZM270.289 160.758L193.157 53.8012L196.662 51.0731L273.794 158.029L270.289 160.758ZM212.263 -67.6662L289.395 39.2902L292.899 36.5621L215.767 -70.3942L212.263 -67.6662ZM350.703 272.265L273.571 165.309L277.076 162.581L354.208 269.537L350.703 272.265ZM292.677 43.8422L369.809 150.799L373.313 148.071L296.181 41.1142L292.677 43.8422ZM189.875 49.2501L112.743 -57.7062L116.248 -60.4343L193.38 46.522L189.875 49.2501ZM131.849 -179.174L208.981 -72.2172L212.485 -74.9453L135.353 -181.902L131.849 -179.174Z" fill="url(#paint0_linear_1_111)"/>
</g>
<defs>
<linearGradient id="paint0_linear_1_111" x1="150" y1="-62.8563" x2="408.401" y2="210.425" gradientUnits="userSpaceOnUse">
<stop stop-color="white" stop-opacity="0"/>
<stop offset="1" stop-color="#41C0D2"/>
</linearGradient>
</defs>
</svg>
